<svg version="1.1" id="Layer_1" xmlns="http://www.w3.org/2000/svg" xmlns:xlink="http://www.w3.org/1999/xlink" x="0px" y="0px"
	 width="100%" viewBox="0 0 1536 1024" enable-background="new 0 0 1536 1024" xml:space="preserve">
<path fill="#FCFCFC" opacity="1.000000" stroke="none" 
	d="
M816.000000,1025.000000 
	C544.000000,1025.000000 272.500000,1025.000000 1.000000,1025.000000 
	C1.000000,683.666687 1.000000,342.333344 1.000000,1.000000 
	C513.000000,1.000000 1025.000000,1.000000 1537.000000,1.000000 
	C1537.000000,342.333344 1537.000000,683.666687 1537.000000,1025.000000 
	C1296.833374,1025.000000 1056.666626,1025.000000 816.000000,1025.000000 
M934.216064,493.071625 
	C934.216064,493.071625 934.164612,493.138916 934.820007,492.868774 
	C936.658081,487.264130 938.496216,481.659485 940.815491,475.712860 
	C940.869995,475.139160 940.924438,474.565460 941.076050,473.341003 
	C941.109253,472.904755 941.142517,472.468536 941.790955,471.586273 
	C942.819031,464.698975 943.847168,457.811676 945.006165,450.005341 
	C944.953552,442.036499 944.901001,434.067627 945.001526,425.220947 
	C944.123535,418.865601 943.691833,412.409851 942.289307,406.172455 
	C936.634399,381.024750 925.705750,358.608154 906.490845,340.933624 
	C886.311951,322.372314 862.020569,314.020752 833.981628,313.035095 
	C723.163696,313.014893 612.345764,312.992157 501.527863,313.015350 
	C500.562012,313.015564 499.596313,313.633301 498.448700,314.884277 
	C498.430115,391.465668 498.430176,468.047028 498.383209,544.628418 
	C498.365997,572.754456 498.237518,600.880371 497.199219,629.002747 
	C495.050812,629.001831 492.902435,629.000244 490.754028,629.000183 
	C480.056915,628.999878 479.737213,629.372742 481.032410,640.051392 
	C481.516968,644.046265 482.783569,646.797791 487.770111,646.091736 
	C491.172699,645.609924 494.698090,645.995239 498.361694,646.799194 
	C498.443787,649.079651 498.341248,651.390503 498.709137,653.623901 
	C498.836273,654.395874 500.133057,654.975098 501.826813,655.853333 
	C528.234985,655.805176 554.643188,655.757019 581.827271,655.404297 
	C581.891602,654.080566 582.011047,652.756836 582.012085,651.433044 
	C582.035400,621.952576 582.045654,592.472046 581.991089,563.054871 
	C581.991089,563.054871 582.052856,563.123535 582.968872,562.947876 
	C663.772095,562.936279 744.575562,563.027649 825.378052,562.779663 
	C835.238525,562.749451 845.093384,560.896851 855.743958,559.911072 
	C893.066528,551.824524 919.242676,530.323120 934.129578,494.373047 
	C934.175720,493.961548 934.221863,493.550018 934.216064,493.071625 
M1286.587646,598.794800 
	C1286.521973,600.209351 1286.456299,601.623901 1285.554199,603.027222 
	C1281.555420,603.746460 1282.522827,607.198181 1282.345093,609.650330 
	C1282.296753,610.319153 1284.971069,611.185120 1286.611084,612.856873 
	C1286.552368,615.916199 1286.493652,618.975586 1285.703613,622.073242 
	C1285.036621,622.874207 1284.369751,623.675232 1283.702759,624.476257 
	C1283.869995,624.604675 1284.037231,624.733154 1284.204468,624.861572 
	C1284.948730,624.183411 1285.692993,623.505249 1286.645142,623.683228 
	C1286.797363,633.777954 1286.949585,643.872742 1286.766357,654.499695 
	C1286.251831,654.195312 1285.493408,654.018799 1285.257324,653.568542 
	C1259.952393,605.278381 1234.733521,556.943298 1209.406006,508.665100 
	C1182.490356,457.359497 1155.479614,406.103882 1128.496582,354.833618 
	C1123.209106,344.786957 1117.859253,334.773102 1112.077637,323.876099 
	C1036.345459,467.349640 961.109070,609.883911 885.564758,753.001404 
	C887.898560,753.001404 889.368530,753.001465 890.838501,753.001404 
	C916.667114,752.999634 942.496216,752.924805 968.323853,753.082214 
	C971.814880,753.103577 973.555481,752.026489 975.138794,748.905823 
	C984.130371,731.184021 993.321716,713.562439 1002.565247,695.969849 
	C1031.609253,640.692200 1060.710449,585.444641 1089.780762,530.180908 
	C1096.988403,516.478821 1104.163086,502.759521 1111.723145,488.342072 
	C1115.558228,495.459534 1119.045166,501.791534 1122.406006,508.189758 
	C1150.609985,561.883545 1178.799805,615.584778 1206.974731,669.293884 
	C1220.903198,695.845154 1234.751099,722.439087 1248.790527,748.931458 
	C1249.700195,750.648132 1251.939331,752.815918 1253.570068,752.824341 
	C1286.725708,752.994568 1319.882690,752.879883 1353.916504,752.949890 
	C1354.683472,751.519226 1356.107422,750.093506 1356.118042,748.657227 
	C1356.260742,729.346497 1356.200806,710.034302 1356.201660,690.722473 
	C1356.207397,571.021790 1356.221680,451.321106 1356.173218,331.620453 
	C1356.172363,329.624512 1355.420532,327.628876 1354.675659,325.281372 
	C1354.108154,325.427979 1353.540771,325.574554 1352.046631,325.838043 
	C1331.044556,325.782013 1310.042358,325.726013 1288.856445,325.370483 
	C1288.561401,325.438629 1288.266357,325.506775 1287.187378,326.079041 
	C1287.035278,328.216797 1286.750488,330.354523 1286.750122,332.492310 
	C1286.735596,417.859253 1286.749878,503.226196 1286.738770,588.593140 
	C1286.738525,590.739502 1286.497192,592.885864 1285.380005,595.011475 
	C1285.048950,595.008362 1284.717896,595.003113 1284.386841,595.002441 
	C1273.604004,594.979614 1273.533203,594.965637 1271.504883,605.196960 
	C1271.188354,606.793030 1271.265747,609.439636 1272.202881,610.083008 
	C1273.597900,611.040649 1276.781128,611.507080 1277.654053,610.633789 
	C1279.089233,609.198120 1280.002075,606.471741 1279.857056,604.378052 
	C1279.506470,599.312378 1281.394165,597.260193 1286.587646,598.794800 
M580.003967,693.504517 
	C580.003967,688.746521 580.003967,683.988586 580.003967,678.995667 
	C577.493958,678.995667 575.678101,678.995544 573.862244,678.995667 
	C550.033630,678.996887 526.204651,679.050354 502.377106,678.893616 
	C500.605377,678.881958 497.978241,677.845520 497.212067,676.470215 
	C490.134979,663.766846 483.281342,650.935486 476.552032,638.042542 
	C462.234894,610.611938 448.112915,583.079407 433.764587,555.665161 
	C397.816345,486.981567 361.796600,418.335358 325.777100,349.689056 
	C321.278687,341.115936 316.609070,332.632660 311.816833,323.732697 
	C236.353775,467.008087 161.200317,609.695679 85.930023,752.605103 
	C86.835541,752.804382 87.275322,752.985657 87.715195,752.985840 
	C115.376343,752.999023 143.037781,753.042419 170.697876,752.869324 
	C172.133011,752.860413 174.153244,751.314575 174.891769,749.941467 
	C181.245255,738.128052 187.315826,726.163025 193.565109,714.292969 
	C230.936005,643.309143 268.327820,572.336304 305.731628,501.369812 
	C307.747467,497.545135 309.934906,493.810913 312.308228,489.558350 
	C330.142822,523.284546 347.641937,556.190430 364.969604,589.186340 
	C392.932465,642.434021 420.814667,695.724243 448.592346,749.068665 
	C450.101318,751.966431 451.517090,753.098389 454.876068,753.086853 
	C495.034271,752.948792 535.193176,753.001343 575.351868,752.988342 
	C576.793579,752.987854 578.235352,752.826416 580.003601,752.720459 
	C580.003601,733.102417 580.003601,713.802917 580.003967,693.504517 
M1263.416138,593.429688 
	C1263.438965,593.593384 1263.405273,593.856079 1263.493042,593.906311 
	C1265.355591,594.971619 1277.999390,593.821350 1279.290649,592.350586 
	C1279.767212,591.807678 1279.876831,590.861511 1279.972168,590.077148 
	C1281.312866,579.055603 1280.271362,577.902222 1269.154175,577.999878 
	C1268.492920,578.005737 1267.614990,577.736938 1267.211426,578.060974 
	C1266.041748,579.000122 1264.309570,580.075684 1264.148560,581.278320 
	C1263.648682,585.017090 1263.773193,588.839355 1263.416138,593.429688 
z"/>
<path fill="#7E5DFD" opacity="1.000000" stroke="none" 
	d="
M834.896606,313.166992 
	C862.020569,314.020752 886.311951,322.372314 906.490845,340.933624 
	C925.705750,358.608154 936.634399,381.024750 942.289307,406.172455 
	C943.691833,412.409851 944.123535,418.865601 944.657227,425.965912 
	C944.500305,434.782043 944.687805,442.853210 944.875244,450.924377 
	C943.847168,457.811676 942.819031,464.698975 941.225830,471.919373 
	C940.766846,472.832214 940.872925,473.411987 940.978943,473.991760 
	C940.924438,474.565460 940.869995,475.139160 940.237793,476.036804 
	C937.828247,481.953461 935.996399,487.546173 934.164551,493.138916 
	C934.164612,493.138916 934.216064,493.071625 933.964966,493.162720 
	C933.777954,493.824524 933.841980,494.395264 933.906006,494.965973 
	C919.242676,530.323120 893.066528,551.824524 855.075073,559.622986 
	C848.177795,559.884155 841.950500,560.897888 835.721069,560.910767 
	C774.738892,561.036743 713.756348,560.996277 652.773926,561.002258 
	C630.946899,561.004333 609.119507,560.955627 587.293396,561.096497 
	C585.542236,561.107727 583.799500,562.417358 582.052856,563.123535 
	C582.052856,563.123535 581.991089,563.054871 581.709412,563.303589 
	C581.289062,565.362976 581.032349,567.173523 581.029358,568.984375 
	C580.982178,597.312012 580.967773,625.639587 580.480774,653.979858 
	C553.350830,653.985901 526.685974,653.979370 500.006226,653.506104 
	C500.005920,540.036011 500.020538,427.032654 500.500061,314.004333 
	C610.520508,313.981995 720.076050,313.988434 829.631592,313.953156 
	C831.386658,313.952576 833.141602,313.440399 834.896606,313.166992 
M843.538330,477.910736 
	C844.023010,477.571991 844.507751,477.233276 844.985840,476.978485 
	C844.985840,476.978485 844.902771,476.964264 845.536682,476.905975 
	C846.023193,476.564850 846.509705,476.223724 846.972351,475.977234 
	C846.972351,475.977234 846.880615,475.943939 847.363647,475.949249 
	C847.581238,475.635925 847.798828,475.322601 848.424377,474.486908 
	C852.267761,469.588898 856.904846,465.114410 859.790833,459.705566 
	C865.978088,448.109894 866.853821,435.654877 862.126221,423.275146 
	C857.701782,411.689301 851.379456,401.630554 837.727661,398.049652 
	C835.688293,397.702667 833.649109,397.053619 831.609558,397.052246 
	C750.498169,396.998474 669.386841,396.997803 588.275452,397.038422 
	C586.536621,397.039276 584.798096,397.601837 582.582275,398.177612 
	C582.363098,398.467834 582.143982,398.758026 581.331238,399.623840 
	C581.230408,400.108337 581.041687,400.592773 581.041321,401.077332 
	C581.021912,425.856567 581.002625,450.635864 581.061584,475.414948 
	C581.064392,476.608154 581.771179,477.799683 582.619385,478.980225 
	C582.619385,478.980225 583.065552,479.126038 583.669312,479.681030 
	C584.318848,479.786774 584.968262,479.984711 585.617859,479.985016 
	C618.489197,480.001740 651.360474,480.011353 684.231750,479.965515 
	C685.469421,479.963806 686.706360,479.406403 688.641785,478.956390 
	C689.112793,479.005951 689.583801,479.055511 690.649048,479.675659 
	C691.296265,479.785614 691.943420,479.991089 692.590698,479.991577 
	C713.142517,480.007812 733.694336,480.019775 754.245972,479.964996 
	C755.480286,479.961700 756.713196,479.402374 758.643677,478.951111 
	C759.113647,479.001587 759.583679,479.052094 760.648315,479.672272 
	C761.131836,479.776123 761.615234,479.970398 762.098816,479.970825 
	C786.541992,479.993011 810.985168,480.014862 835.428162,479.956726 
	C836.613220,479.953918 837.796631,479.232605 839.346069,478.375916 
	C839.914917,478.288635 840.483826,478.201324 841.356873,478.562012 
	C841.896057,478.320557 842.435242,478.079071 843.001282,477.934631 
	C843.001282,477.934631 842.902100,477.951447 843.538330,477.910736 
z"/>
<path fill="#00A8E4" opacity="1.000000" stroke="none" 
	d="
M1353.039429,752.822266 
	C1319.882690,752.879883 1286.725708,752.994568 1253.570068,752.824341 
	C1251.939331,752.815918 1249.700195,750.648132 1248.790527,748.931458 
	C1234.751099,722.439087 1220.903198,695.845154 1206.974731,669.293884 
	C1178.799805,615.584778 1150.609985,561.883545 1122.406006,508.189758 
	C1119.045166,501.791534 1115.558228,495.459534 1111.723145,488.342072 
	C1104.163086,502.759521 1096.988403,516.478821 1089.780762,530.180908 
	C1060.710449,585.444641 1031.609253,640.692200 1002.565247,695.969849 
	C993.321716,713.562439 984.130371,731.184021 975.138794,748.905823 
	C973.555481,752.026489 971.814880,753.103577 968.323853,753.082214 
	C942.496216,752.924805 916.667114,752.999634 890.838501,753.001404 
	C889.368530,753.001465 887.898560,753.001404 885.564758,753.001404 
	C961.109070,609.883911 1036.345459,467.349640 1112.077637,323.876099 
	C1117.859253,334.773102 1123.209106,344.786957 1128.496582,354.833618 
	C1155.479614,406.103882 1182.490356,457.359497 1209.406006,508.665100 
	C1234.733521,556.943298 1259.952393,605.278381 1285.257324,653.568542 
	C1285.493408,654.018799 1286.251831,654.195312 1287.209351,653.926331 
	C1287.768188,651.537537 1287.984863,649.722168 1287.985352,647.906738 
	C1288.002319,578.778015 1288.000122,509.649261 1287.999268,440.520538 
	C1287.998901,404.373718 1288.023682,368.226807 1287.948730,332.080139 
	C1287.942017,328.822540 1288.167480,326.864197 1292.373169,326.908691 
	C1311.860229,327.114868 1331.351196,327.065643 1350.839722,326.938568 
	C1354.191772,326.916718 1355.107544,328.120300 1355.058838,331.305267 
	C1354.903564,341.463989 1355.000244,351.626556 1355.000366,361.787659 
	C1355.001831,489.884033 1355.013550,617.980408 1354.923096,746.076721 
	C1354.921509,748.325684 1353.694580,750.573792 1353.039429,752.822266 
z"/>
<path fill="#01A8E4" opacity="1.000000" stroke="none" 
	d="
M580.003784,694.003967 
	C580.003601,713.802917 580.003601,733.102417 580.003601,752.720459 
	C578.235352,752.826416 576.793579,752.987854 575.351868,752.988342 
	C535.193176,753.001343 495.034271,752.948792 454.876068,753.086853 
	C451.517090,753.098389 450.101318,751.966431 448.592346,749.068665 
	C420.814667,695.724243 392.932465,642.434021 364.969604,589.186340 
	C347.641937,556.190430 330.142822,523.284546 312.308228,489.558350 
	C309.934906,493.810913 307.747467,497.545135 305.731628,501.369812 
	C268.327820,572.336304 230.936005,643.309143 193.565109,714.292969 
	C187.315826,726.163025 181.245255,738.128052 174.891769,749.941467 
	C174.153244,751.314575 172.133011,752.860413 170.697876,752.869324 
	C143.037781,753.042419 115.376343,752.999023 87.715195,752.985840 
	C87.275322,752.985657 86.835541,752.804382 85.930023,752.605103 
	C161.200317,609.695679 236.353775,467.008087 311.816833,323.732697 
	C316.609070,332.632660 321.278687,341.115936 325.777100,349.689056 
	C361.796600,418.335358 397.816345,486.981567 433.764587,555.665161 
	C448.112915,583.079407 462.234894,610.611938 476.552032,638.042542 
	C483.281342,650.935486 490.134979,663.766846 497.212067,676.470215 
	C497.978241,677.845520 500.605377,678.881958 502.377106,678.893616 
	C526.204651,679.050354 550.033630,678.996887 573.862244,678.995667 
	C575.678101,678.995544 577.493958,678.995667 580.003967,678.995667 
	C580.003967,683.988586 580.003967,688.746521 580.003784,694.003967 
z"/>
<path fill="#008FDC" opacity="1.000000" stroke="none" 
	d="
M1353.478027,752.886108 
	C1353.694580,750.573792 1354.921509,748.325684 1354.923096,746.076721 
	C1355.013550,617.980408 1355.001831,489.884033 1355.000366,361.787659 
	C1355.000244,351.626556 1354.903564,341.463989 1355.058838,331.305267 
	C1355.107544,328.120300 1354.191772,326.916718 1350.839722,326.938568 
	C1331.351196,327.065643 1311.860229,327.114868 1292.373169,326.908691 
	C1288.167480,326.864197 1287.942017,328.822540 1287.948730,332.080139 
	C1288.023682,368.226807 1287.998901,404.373718 1287.999268,440.520538 
	C1288.000122,509.649261 1288.002319,578.778015 1287.985352,647.906738 
	C1287.984863,649.722168 1287.768188,651.537537 1287.377075,653.660217 
	C1286.949585,643.872742 1286.797363,633.777954 1286.617676,623.057678 
	C1286.590332,622.432129 1286.434937,622.034912 1286.434937,622.034912 
	C1286.493652,618.975586 1286.552368,615.916199 1286.609131,611.973450 
	C1286.534912,608.406189 1286.462769,605.722290 1286.390625,603.038452 
	C1286.456299,601.623901 1286.521973,600.209351 1286.588135,598.022461 
	C1286.515137,596.510864 1286.441772,595.771545 1286.368408,595.032227 
	C1286.497192,592.885864 1286.738525,590.739502 1286.738770,588.593140 
	C1286.749878,503.226196 1286.735596,417.859253 1286.750122,332.492310 
	C1286.750488,330.354523 1287.035278,328.216797 1287.838623,325.940369 
	C1288.673462,325.757782 1288.856812,325.713898 1289.040283,325.669983 
	C1310.042358,325.726013 1331.044556,325.782013 1352.850830,325.871521 
	C1354.109741,325.814331 1354.564331,325.723724 1355.019043,325.633118 
	C1355.420532,327.628876 1356.172363,329.624512 1356.173218,331.620453 
	C1356.221680,451.321106 1356.207397,571.021790 1356.201660,690.722473 
	C1356.200806,710.034302 1356.260742,729.346497 1356.118042,748.657227 
	C1356.107422,750.093506 1354.683472,751.519226 1353.478027,752.886108 
z"/>
<path fill="#6133FC" opacity="1.000000" stroke="none" 
	d="
M500.035187,314.029327 
	C500.020538,427.032654 500.005920,540.036011 500.078491,653.732056 
	C500.408997,654.830688 500.652313,655.236511 500.895630,655.642395 
	C500.133057,654.975098 498.836273,654.395874 498.709137,653.623901 
	C498.341248,651.390503 498.443787,649.079651 498.363373,645.937378 
	C498.296631,639.719116 498.228210,634.362732 498.159790,629.006348 
	C498.237518,600.880371 498.365997,572.754456 498.383209,544.628418 
	C498.430176,468.047028 498.430115,391.465668 498.773804,314.422607 
	C499.409821,313.999634 499.721924,314.022430 500.035187,314.029327 
z"/>
<path fill="#6C46FC" opacity="1.000000" stroke="none" 
	d="
M582.510864,563.035706 
	C583.799500,562.417358 585.542236,561.107727 587.293396,561.096497 
	C609.119507,560.955627 630.946899,561.004333 652.773926,561.002258 
	C713.756348,560.996277 774.738892,561.036743 835.721069,560.910767 
	C841.950500,560.897888 848.177795,559.884155 854.678467,559.611816 
	C845.093384,560.896851 835.238525,562.749451 825.378052,562.779663 
	C744.575562,563.027649 663.772095,562.936279 582.510864,563.035706 
z"/>
<path fill="#491EFE" opacity="1.000000" stroke="none" 
	d="
M500.500061,314.004333 
	C499.721924,314.022430 499.409821,313.999634 498.864716,313.961792 
	C499.596313,313.633301 500.562012,313.015564 501.527863,313.015350 
	C612.345764,312.992157 723.163696,313.014893 834.439087,313.101044 
	C833.141602,313.440399 831.386658,313.952576 829.631592,313.953156 
	C720.076050,313.988434 610.520508,313.981995 500.500061,314.004333 
z"/>
<path fill="#F8F8F9" opacity="1.000000" stroke="none" 
	d="
M497.679504,629.004517 
	C498.228210,634.362732 498.296631,639.719116 498.266815,645.534180 
	C494.698090,645.995239 491.172699,645.609924 487.770111,646.091736 
	C482.783569,646.797791 481.516968,644.046265 481.032410,640.051392 
	C479.737213,629.372742 480.056915,628.999878 490.754028,629.000183 
	C492.902435,629.000244 495.050812,629.001831 497.679504,629.004517 
z"/>
<path fill="#F8F8F9" opacity="1.000000" stroke="none" 
	d="
M1263.535767,593.029419 
	C1263.773193,588.839355 1263.648682,585.017090 1264.148560,581.278320 
	C1264.309570,580.075684 1266.041748,579.000122 1267.211426,578.060974 
	C1267.614990,577.736938 1268.492920,578.005737 1269.154175,577.999878 
	C1280.271362,577.902222 1281.312866,579.055603 1279.972168,590.077148 
	C1279.876831,590.861511 1279.767212,591.807678 1279.290649,592.350586 
	C1277.999390,593.821350 1265.355591,594.971619 1263.493042,593.906311 
	C1263.405273,593.856079 1263.438965,593.593384 1263.535767,593.029419 
z"/>
<path fill="#6C46FC" opacity="1.000000" stroke="none" 
	d="
M501.361206,655.747864 
	C500.652313,655.236511 500.408997,654.830688 500.093414,654.198853 
	C526.685974,653.979370 553.350830,653.985901 580.500671,654.270386 
	C581.007568,654.935242 581.029480,655.322021 581.051392,655.708862 
	C554.643188,655.757019 528.234985,655.805176 501.361206,655.747864 
z"/>
<path fill="#F8F8F9" opacity="1.000000" stroke="none" 
	d="
M1285.874268,595.021851 
	C1286.441772,595.771545 1286.515137,596.510864 1286.480225,597.609070 
	C1281.394165,597.260193 1279.506470,599.312378 1279.857056,604.378052 
	C1280.002075,606.471741 1279.089233,609.198120 1277.654053,610.633789 
	C1276.781128,611.507080 1273.597900,611.040649 1272.202881,610.083008 
	C1271.265747,609.439636 1271.188354,606.793030 1271.504883,605.196960 
	C1273.533203,594.965637 1273.604004,594.979614 1284.386841,595.002441 
	C1284.717896,595.003113 1285.048950,595.008362 1285.874268,595.021851 
z"/>
<path fill="#5022FD" opacity="1.000000" stroke="none" 
	d="
M581.439331,655.556580 
	C581.029480,655.322021 581.007568,654.935242 580.965759,654.257812 
	C580.967773,625.639587 580.982178,597.312012 581.029358,568.984375 
	C581.032349,567.173523 581.289062,565.362976 581.743042,563.271973 
	C582.045654,592.472046 582.035400,621.952576 582.012085,651.433044 
	C582.011047,652.756836 581.891602,654.080566 581.439331,655.556580 
z"/>
<path fill="#F8F8F9" opacity="1.000000" stroke="none" 
	d="
M1285.972412,603.032837 
	C1286.462769,605.722290 1286.534912,608.406189 1286.501465,611.525330 
	C1284.971069,611.185120 1282.296753,610.319153 1282.345093,609.650330 
	C1282.522827,607.198181 1281.555420,603.746460 1285.972412,603.032837 
z"/>
<path fill="#6C46FC" opacity="1.000000" stroke="none" 
	d="
M934.492310,493.003845 
	C935.996399,487.546173 937.828247,481.953461 939.997192,476.207794 
	C938.496216,481.659485 936.658081,487.264130 934.492310,493.003845 
z"/>
<path fill="#5022FD" opacity="1.000000" stroke="none" 
	d="
M944.940674,450.464844 
	C944.687805,442.853210 944.500305,434.782043 944.580688,426.404846 
	C944.901001,434.067627 944.953552,442.036499 944.940674,450.464844 
z"/>
<path fill="#F8F8F9" opacity="1.000000" stroke="none" 
	d="
M1286.069336,622.054077 
	C1286.434937,622.034912 1286.590332,622.432129 1286.513794,622.629639 
	C1285.692993,623.505249 1284.948730,624.183411 1284.204468,624.861572 
	C1284.037231,624.733154 1283.869995,624.604675 1283.702759,624.476257 
	C1284.369751,623.675232 1285.036621,622.874207 1286.069336,622.054077 
z"/>
<path fill="#6C46FC" opacity="1.000000" stroke="none" 
	d="
M934.017822,494.669495 
	C933.841980,494.395264 933.777954,493.824524 933.990967,493.196167 
	C934.221863,493.550018 934.175720,493.961548 934.017822,494.669495 
z"/>
<path fill="#BEE5F3" opacity="1.000000" stroke="none" 
	d="
M1354.847412,325.457245 
	C1354.564331,325.723724 1354.109741,325.814331 1353.314209,325.813049 
	C1353.540771,325.574554 1354.108154,325.427979 1354.847412,325.457245 
z"/>
<path fill="#6C46FC" opacity="1.000000" stroke="none" 
	d="
M941.027527,473.666382 
	C940.872925,473.411987 940.766846,472.832214 940.918213,472.142395 
	C941.142517,472.468536 941.109253,472.904755 941.027527,473.666382 
z"/>
<path fill="#BEE5F3" opacity="1.000000" stroke="none" 
	d="
M1288.948364,325.520233 
	C1288.856812,325.713898 1288.673462,325.757782 1288.230713,325.688324 
	C1288.266357,325.506775 1288.561401,325.438629 1288.948364,325.520233 
z"/>
<path fill="#FCFCFC" opacity="1.000000" stroke="none" 
	d="
M841.052673,478.114014 
	C840.483826,478.201324 839.914917,478.288635 838.696289,478.632935 
	C812.048950,478.960815 786.051270,479.031677 760.053650,479.102570 
	C759.583679,479.052094 759.113647,479.001587 757.831909,478.985291 
	C734.698303,479.048035 712.376587,479.076538 690.054810,479.105072 
	C689.583801,479.055511 689.112793,479.005951 687.829651,478.990845 
	C652.366882,479.058899 617.716187,479.092468 583.065552,479.126038 
	C583.065552,479.126038 582.619385,478.980225 582.320190,478.521698 
	C581.988953,451.724854 581.956909,425.386536 581.924805,399.048218 
	C582.143982,398.758026 582.363098,398.467834 583.283691,398.081848 
	C643.074646,397.990417 702.164429,397.916992 761.253723,398.035217 
	C786.813599,398.086365 812.372681,398.532990 837.932129,398.799988 
	C851.379456,401.630554 857.701782,411.689301 862.126221,423.275146 
	C866.853821,435.654877 865.978088,448.109894 859.790833,459.705566 
	C856.904846,465.114410 852.267761,469.588898 847.969238,474.816040 
	C847.302917,475.411438 847.091797,475.677673 846.880615,475.943939 
	C846.880615,475.943939 846.972351,475.977234 846.681885,475.983093 
	C845.895203,476.314087 845.398987,476.639191 844.902771,476.964264 
	C844.902771,476.964264 844.985840,476.978485 844.680420,476.977417 
	C843.884033,477.301422 843.393066,477.626434 842.902100,477.951477 
	C842.902100,477.951447 843.001282,477.934631 842.662842,477.895203 
	C841.900452,477.941833 841.476562,478.027924 841.052673,478.114014 
z"/>
<path fill="#5426FE" opacity="1.000000" stroke="none" 
	d="
M837.829895,398.424805 
	C812.372681,398.532990 786.813599,398.086365 761.253723,398.035217 
	C702.164429,397.916992 643.074646,397.990417 583.522217,397.944214 
	C584.798096,397.601837 586.536621,397.039276 588.275452,397.038422 
	C669.386841,396.997803 750.498169,396.998474 831.609558,397.052246 
	C833.649109,397.053619 835.688293,397.702667 837.829895,398.424805 
z"/>
<path fill="#5E34FD" opacity="1.000000" stroke="none" 
	d="
M583.367432,479.403534 
	C617.716187,479.092468 652.366882,479.058899 687.480591,479.066650 
	C686.706360,479.406403 685.469421,479.963806 684.231750,479.965515 
	C651.360474,480.011353 618.489197,480.001740 585.617859,479.985016 
	C584.968262,479.984711 584.318848,479.786774 583.367432,479.403534 
z"/>
<path fill="#5022FD" opacity="1.000000" stroke="none" 
	d="
M581.628052,399.336029 
	C581.956909,425.386536 581.988953,451.724854 582.085571,478.527588 
	C581.771179,477.799683 581.064392,476.608154 581.061584,475.414948 
	C581.002625,450.635864 581.021912,425.856567 581.041321,401.077332 
	C581.041687,400.592773 581.230408,400.108337 581.628052,399.336029 
z"/>
<path fill="#5E34FD" opacity="1.000000" stroke="none" 
	d="
M760.350952,479.387421 
	C786.051270,479.031677 812.048950,478.960815 838.513672,478.867889 
	C837.796631,479.232605 836.613220,479.953918 835.428162,479.956726 
	C810.985168,480.014862 786.541992,479.993011 762.098816,479.970825 
	C761.615234,479.970398 761.131836,479.776123 760.350952,479.387421 
z"/>
<path fill="#5E34FD" opacity="1.000000" stroke="none" 
	d="
M690.351929,479.390381 
	C712.376587,479.076538 734.698303,479.048035 757.483398,479.060638 
	C756.713196,479.402374 755.480286,479.961700 754.245972,479.964996 
	C733.694336,480.019775 713.142517,480.007812 692.590698,479.991577 
	C691.943420,479.991089 691.296265,479.785614 690.351929,479.390381 
z"/>
<path fill="#5E34FD" opacity="1.000000" stroke="none" 
	d="
M845.219727,476.935120 
	C845.398987,476.639191 845.895203,476.314087 846.693848,475.935791 
	C846.509705,476.223724 846.023193,476.564850 845.219727,476.935120 
z"/>
<path fill="#5E34FD" opacity="1.000000" stroke="none" 
	d="
M847.122131,475.946594 
	C847.091797,475.677673 847.302917,475.411438 847.765259,475.077240 
	C847.798828,475.322601 847.581238,475.635925 847.122131,475.946594 
z"/>
<path fill="#5E34FD" opacity="1.000000" stroke="none" 
	d="
M841.204773,478.338013 
	C841.476562,478.027924 841.900452,477.941833 842.649414,477.846680 
	C842.435242,478.079071 841.896057,478.320557 841.204773,478.338013 
z"/>
<path fill="#5E34FD" opacity="1.000000" stroke="none" 
	d="
M843.220215,477.931091 
	C843.393066,477.626434 843.884033,477.301422 844.683716,476.935455 
	C844.507751,477.233276 844.023010,477.571991 843.220215,477.931091 
z"/>
</svg>