<svg xmlns="http://www.w3.org/2000/svg" viewBox="0 0 512 512" xml:space="preserve"><path d="m511.013 307.28-22.064-125.117c-5.462-30.972-32.281-53.452-63.769-53.452H86.824c-31.488 0-58.307 22.48-63.769 53.452L.991 307.28c-3.336 18.912 1.837 38.192 14.189 52.897 12.336 14.688 30.43 23.112 49.639 23.112h382.369c19.177 0 37.255-8.429 49.599-23.124 12.37-14.729 17.556-34.004 14.226-52.885M203.009 193.746c0-9.289 7.531-16.819 16.819-16.819h19.351V162.35h33.639v14.577h21.015c9.289 0 16.819 7.531 16.819 16.819s-7.531 16.819-16.819 16.819h-74.005c-9.288 0-16.819-7.53-16.819-16.819m241.065 91.049-55.21 8.682-103.759 56.172h-70.657l74.834-40.513c-3.988.627-4.731.797-6.391.797-8.137 0-15.291-5.917-16.594-14.209-1.443-9.177 4.826-17.785 14.003-19.228l158.55-24.932c9.178-1.442 17.785 4.826 19.228 14.003s-4.827 17.785-14.004 19.228"/></svg>